<svg width="41" height="40" viewBox="0 0 41 40" fill="none" xmlns="http://www.w3.org/2000/svg">
<g clip-path="url(#clip0_347_3668)">
<path d="M15.0716 35.3846C17.9023 35.3846 20.1998 33.0871 20.1998 30.2564V25.1282H15.0716C12.2408 25.1282 9.94336 27.4256 9.94336 30.2564C9.94336 33.0871 12.2408 35.3846 15.0716 35.3846Z" fill="white"/>
<path d="M9.94336 20C9.94336 17.1693 12.2408 14.8718 15.0716 14.8718H20.1998V25.1282H15.0716C12.2408 25.1282 9.94336 22.8308 9.94336 20Z" fill="white"/>
<path d="M9.94336 9.74368C9.94336 6.91291 12.2408 4.61548 15.0716 4.61548H20.1998V14.8719H15.0716C12.2408 14.8719 9.94336 12.5745 9.94336 9.74368Z" fill="white"/>
<path d="M20.1998 4.61548H25.328C28.1588 4.61548 30.4562 6.91291 30.4562 9.74368C30.4562 12.5745 28.1588 14.8719 25.328 14.8719H20.1998V4.61548Z" fill="white"/>
<path d="M30.4562 20C30.4562 22.8308 28.1588 25.1282 25.328 25.1282C22.4973 25.1282 20.1998 22.8308 20.1998 20C20.1998 17.1693 22.4973 14.8718 25.328 14.8718C28.1588 14.8718 30.4562 17.1693 30.4562 20Z" fill="white"/>
</g>
<rect x="0.584567" y="0.384615" width="39.2308" height="39.2308" rx="7.30769" stroke="white" stroke-width="0.769231"/>
<defs>
<clipPath id="clip0_347_3668">
<rect width="30.7692" height="30.7692" fill="white" transform="translate(4.81531 4.61548)"/>
</clipPath>
</defs>
</svg>
