<svg width="40" height="40" viewBox="0 0 40 40" fill="none" xmlns="http://www.w3.org/2000/svg">
<path d="M27.8005 10.446C25.4621 10.5177 25.4627 13.882 27.8005 13.9531C30.139 13.8814 30.1384 10.5171 27.8005 10.446ZM19.9999 12.4762C15.8553 12.4762 12.4956 15.8448 12.4956 20.0002C12.891 29.9808 27.1101 29.978 27.5039 20.0002C27.5042 15.8448 24.1442 12.4762 19.9999 12.4762ZM19.9999 24.8842C17.3098 24.8842 15.1288 22.6974 15.1288 20.0002C15.3855 13.5217 24.6156 13.5233 24.8713 20.0002C24.871 22.6977 22.6901 24.8842 19.9999 24.8842Z" fill="white"/>
<path d="M34.5255 13.975C34.4172 8.84665 31.1544 5.58204 26.0249 5.47465C24.7932 5.35588 15.2073 5.35373 13.9747 5.47465C8.8464 5.58296 5.58179 8.84573 5.4744 13.9753C5.35563 15.2051 5.35317 24.794 5.4744 26.0254C5.57009 31.1371 8.8624 34.4303 13.9747 34.5257C15.2064 34.6457 24.7922 34.6457 26.0249 34.5257C27.5802 34.4547 28.6427 34.2076 29.5722 33.8463C32.8298 32.5451 34.4215 29.6507 34.5255 26.0251C34.6442 24.7934 34.6464 15.2076 34.5255 13.975ZM25.9049 31.8953C24.6929 32.011 15.3076 32.0128 14.0947 31.8953C12.6701 31.8303 11.8962 31.5922 11.3812 31.3922C6.93532 29.33 8.31379 25.1599 8.10425 19.4359C8.10886 18.1063 8.10148 15.4248 8.10456 14.0953C8.28209 10.1316 10.1489 8.2965 14.0947 8.10511C15.3082 7.98942 24.691 7.98758 25.9049 8.10511C29.8698 8.28265 31.703 10.1494 31.895 14.095C31.9735 15.0423 32.0304 20.214 31.895 22.8313C32.0412 27.747 31.8172 31.607 25.9049 31.8953Z" fill="white"/>
<rect x="0.384615" y="0.384615" width="39.2308" height="39.2308" rx="7.30769" stroke="white" stroke-width="0.769231"/>
</svg>
