<svg width="41" height="40" viewBox="0 0 41 40" fill="none" xmlns="http://www.w3.org/2000/svg">
<g clip-path="url(#clip0_347_3675)">
<path d="M32.8551 5.38864C28.3594 5.37602 11.7776 5.39725 7.94498 5.38864C6.75236 5.38864 5.78467 6.32679 5.78467 7.48218V32.5225C5.78467 33.6782 6.75236 34.6154 7.94498 34.6154H32.8551C34.0484 34.6154 35.0154 33.6782 35.0154 32.5222V7.48218C35.0154 6.32679 34.0484 5.38864 32.8551 5.38864Z" fill="white"/>
<path d="M21.4624 29.8477C21.4624 29.8477 21.4624 22.5007 21.4624 22.5003C21.4197 21.1502 22.2267 19.8902 23.8507 19.8336C25.4332 19.8336 26.0664 21.04 26.0664 22.809V29.8474H30.44V22.3031C30.44 18.2616 28.2824 16.381 25.4046 16.381C23.0452 16.381 22.0089 17.6994 21.4332 18.5976L21.4624 16.6899H17.0889C17.1458 17.9243 17.0886 29.8477 17.0886 29.8477H21.4624ZM14.6677 24.1419V16.6896H10.2935V29.8474H14.668C14.667 28.4659 14.6695 25.504 14.6677 24.1419ZM12.4815 14.8936C14.0064 14.8936 14.956 13.8831 14.956 12.6207C14.9433 9.57542 10.0317 9.60927 10.0357 12.6203C10.0323 13.8927 11.008 14.9093 12.4815 14.8936Z" fill="black"/>
</g>
<rect x="0.78464" y="0.384615" width="39.2308" height="39.2308" rx="7.30769" stroke="white" stroke-width="0.769231"/>
<defs>
<clipPath id="clip0_347_3675">
<rect width="30.7692" height="30.7692" fill="white" transform="translate(5.01538 4.61548)"/>
</clipPath>
</defs>
</svg>
