<svg width="124" height="46" viewBox="0 0 124 46" fill="none" xmlns="http://www.w3.org/2000/svg">
<path d="M34.745 20.0309C34.1054 20.6744 33.6157 21.4509 33.3106 22.3052C33.0055 23.1595 32.8926 24.0706 32.9799 24.9736L32.9495 24.9432C33.0393 26.0062 32.8958 27.0757 32.5295 28.0776C32.1631 29.0793 31.5826 29.989 30.8285 30.7433C30.0742 31.4975 29.1644 32.0781 28.1626 32.4443C27.1609 32.8107 26.0911 32.9541 25.0284 32.8643L25.0587 32.8947C23.7874 32.7764 22.5104 33.053 21.4019 33.687C20.2936 34.321 19.4076 35.2813 18.8651 36.4373C18.3226 37.5932 18.1496 38.8882 18.37 40.1461C18.5905 41.4038 19.1935 42.5629 20.0968 43.4654C21.0001 44.3679 22.1598 44.9698 23.4176 45.189C24.6757 45.4084 25.9705 45.2342 27.1259 44.6907C28.2814 44.147 29.2409 43.2604 29.8739 42.1513C30.5068 41.0423 30.7824 39.7652 30.6629 38.4938L30.695 38.5242C30.6052 37.4614 30.7485 36.3917 31.1148 35.3899C31.4812 34.3882 32.0619 33.4784 32.816 32.7241C33.5703 31.97 34.4801 31.3893 35.4818 31.0231C36.4836 30.6568 37.5532 30.5133 38.6161 30.6031L38.5841 30.5727C39.6225 30.666 40.6679 30.4958 41.6232 30.0776C42.5784 29.6594 43.4127 29.0069 44.0485 28.1805C44.6844 27.3541 45.1015 26.3805 45.2608 25.3501C45.4203 24.3195 45.317 23.2655 44.9606 22.2854C44.6042 21.3055 44.0062 20.4314 43.222 19.744C42.4378 19.0567 41.4928 18.5785 40.4746 18.3537C39.4563 18.1289 38.3978 18.1647 37.3971 18.4578C36.3964 18.7511 35.486 19.2921 34.7501 20.0309H34.745Z" fill="white"/>
<path d="M22.2963 28.9148L22.2642 28.8844C23.1676 28.9754 24.0798 28.8645 24.9352 28.5597C25.7904 28.255 26.5674 27.7641 27.2096 27.1223C27.8517 26.4806 28.3435 25.704 28.6487 24.8489C28.9542 23.9939 29.0657 23.0818 28.9754 22.1783L29.0075 22.2087C28.9177 21.1457 29.0611 20.0762 29.4273 19.0743C29.7937 18.0726 30.3744 17.1629 31.1285 16.4086C31.8828 15.6544 32.7925 15.0737 33.7942 14.7076C34.7961 14.3411 35.8657 14.1978 36.9286 14.2875L36.8965 14.2572C38.1681 14.3766 39.4453 14.1008 40.5544 13.4676C41.6636 12.8343 42.5502 11.8744 43.0936 10.7186C43.6369 9.56294 43.8106 8.26773 43.5909 7.00968C43.3711 5.75163 42.7687 4.59202 41.8656 3.68897C40.9626 2.78594 39.8029 2.18343 38.5449 1.96368C37.2869 1.74392 35.9917 1.91758 34.8359 2.46099C33.6802 3.00438 32.7203 3.89108 32.087 5.00012C31.4537 6.10915 31.1779 7.38653 31.2974 8.65803L31.267 8.62597C31.357 9.68891 31.2139 10.7587 30.8477 11.7606C30.4815 12.7625 29.9008 13.6724 29.1467 14.4267C28.3924 15.1809 27.4825 15.7616 26.4806 16.1278C25.4786 16.4939 24.4089 16.637 23.3459 16.5471L23.3763 16.5792C22.473 16.4882 21.5605 16.5991 20.7053 16.9038C19.8501 17.2084 19.0732 17.6995 18.4309 18.3412C17.7886 18.983 17.2971 19.7596 16.9916 20.6146C16.6864 21.4697 16.5748 22.3818 16.6651 23.2853L16.6347 23.2549C16.7242 24.3177 16.5806 25.3872 16.2142 26.3889C15.8477 27.3905 15.2672 28.3002 14.513 29.0543C13.7588 29.8085 12.8492 30.389 11.8476 30.7555C10.8459 31.1219 9.77641 31.2655 8.71361 31.176L8.74398 31.2064C7.47248 31.0869 6.1951 31.3627 5.08606 31.996C3.97703 32.6293 3.09033 33.5892 2.54694 34.7449C2.00353 35.9007 1.82986 37.1959 2.04962 38.4539C2.26938 39.7119 2.87189 40.8716 3.77492 41.7745C4.67797 42.6777 5.83758 43.2801 7.09563 43.4998C8.35368 43.7196 9.64889 43.5459 10.8046 43.0025C11.9603 42.4592 12.9203 41.5726 13.5535 40.4635C14.1868 39.3543 14.4626 38.0771 14.3431 36.8055L14.3752 36.8359C14.2854 35.7729 14.4288 34.7034 14.7952 33.7015C15.1614 32.6998 15.742 31.7901 16.4962 31.0358C17.2505 30.2817 18.1602 29.701 19.1619 29.3348C20.1638 28.9684 21.2333 28.825 22.2963 28.9148Z" fill="white"/>
<path d="M10.9867 25.5279C11.6263 24.8846 12.116 24.108 12.4208 23.2536C12.7256 22.3993 12.8381 21.488 12.7501 20.5852L12.7822 20.6156C12.6924 19.5525 12.8358 18.4824 13.2023 17.4804C13.5689 16.4783 14.1498 15.5684 14.9044 14.8141C15.6591 14.0598 16.5691 13.4794 17.5713 13.1133C18.5735 12.7471 19.6436 12.6042 20.7067 12.6945L20.6746 12.6641C21.9457 12.7832 23.2226 12.5073 24.3311 11.8741C25.4396 11.2409 26.3257 10.2811 26.8689 9.12578C27.412 7.97041 27.5855 6.67568 27.3657 5.4181C27.146 4.16053 26.5436 3.00135 25.641 2.09864C24.7383 1.19593 23.579 0.593624 22.3215 0.373878C21.0639 0.154115 19.7691 0.327623 18.6139 0.870695C17.4584 1.41377 16.4988 2.29999 15.8656 3.40851C15.2323 4.51703 14.9564 5.79389 15.0755 7.06495L15.0451 7.03458C15.1349 8.09745 14.9915 9.1671 14.6251 10.1689C14.2588 11.1706 13.6783 12.0804 12.9241 12.8346C12.1698 13.5889 11.2601 14.1694 10.2583 14.5357C9.25653 14.902 8.18689 15.0455 7.12402 14.9557L7.15439 14.9861C6.11585 14.8929 5.0706 15.0635 4.11551 15.4819C3.16042 15.9002 2.32637 16.5529 1.69067 17.3795C1.05497 18.2058 0.638195 19.1795 0.478929 20.2099C0.319679 21.2405 0.423106 22.2945 0.779624 23.2742C1.13614 24.2542 1.73424 25.1281 2.51848 25.8153C3.30271 26.5026 4.24771 26.9807 5.26591 27.2054C6.2841 27.43 7.34255 27.3941 8.34319 27.101C9.34381 26.8077 10.2542 26.2667 10.9901 25.5279H10.9867Z" fill="white"/>
<path d="M66.3599 29.8875V34.7812H63.4236C61.3311 34.7812 59.6999 34.275 58.5299 33.2625C57.3599 32.2275 56.7749 30.5512 56.7749 28.2337V20.7412H54.4799V15.9487H56.7749V11.3587H62.5461V15.9487H66.3261V20.7412H62.5461V28.3012C62.5461 28.8637 62.6811 29.2687 62.9511 29.5162C63.2211 29.7637 63.6711 29.8875 64.3011 29.8875H66.3599ZM72.4771 13.9912C71.4646 13.9912 70.6321 13.6987 69.9796 13.1137C69.3496 12.5062 69.0346 11.7637 69.0346 10.8862C69.0346 9.98625 69.3496 9.24375 69.9796 8.65875C70.6321 8.05125 71.4646 7.7475 72.4771 7.7475C73.4671 7.7475 74.2771 8.05125 74.9071 8.65875C75.5596 9.24375 75.8858 9.98625 75.8858 10.8862C75.8858 11.7637 75.5596 12.5062 74.9071 13.1137C74.2771 13.6987 73.4671 13.9912 72.4771 13.9912ZM75.3458 15.9487V34.7812H69.5746V15.9487H75.3458ZM78.3807 25.3312C78.3807 23.3962 78.7407 21.6975 79.4607 20.235C80.2032 18.7725 81.2044 17.6475 82.4644 16.86C83.7244 16.0725 85.1307 15.6787 86.6832 15.6787C88.0107 15.6787 89.1694 15.9487 90.1594 16.4887C91.1719 17.0287 91.9482 17.7375 92.4882 18.615V15.9487H98.2594V34.7812H92.4882V32.115C91.9257 32.9925 91.1382 33.7012 90.1257 34.2412C89.1357 34.7812 87.9769 35.0513 86.6494 35.0513C85.1194 35.0513 83.7244 34.6575 82.4644 33.87C81.2044 33.06 80.2032 31.9237 79.4607 30.4612C78.7407 28.9762 78.3807 27.2662 78.3807 25.3312ZM92.4882 25.365C92.4882 23.925 92.0832 22.7887 91.2732 21.9562C90.4857 21.1237 89.5182 20.7075 88.3707 20.7075C87.2232 20.7075 86.2444 21.1237 85.4344 21.9562C84.6469 22.7662 84.2532 23.8912 84.2532 25.3312C84.2532 26.7712 84.6469 27.9187 85.4344 28.7737C86.2444 29.6062 87.2232 30.0225 88.3707 30.0225C89.5182 30.0225 90.4857 29.6062 91.2732 28.7737C92.0832 27.9412 92.4882 26.805 92.4882 25.365ZM113.91 15.7462C116.115 15.7462 117.87 16.4662 119.175 17.9062C120.502 19.3237 121.166 21.2812 121.166 23.7787V34.7812H115.428V24.555C115.428 23.295 115.102 22.3162 114.45 21.6187C113.797 20.9212 112.92 20.5725 111.817 20.5725C110.715 20.5725 109.837 20.9212 109.185 21.6187C108.532 22.3162 108.206 23.295 108.206 24.555V34.7812H102.435V15.9487H108.206V18.4462C108.791 17.6137 109.578 16.9612 110.568 16.4887C111.558 15.9937 112.672 15.7462 113.91 15.7462Z" fill="white"/>
</svg>
