<svg width="40" height="40" viewBox="0 0 40 40" fill="none" xmlns="http://www.w3.org/2000/svg">
<path d="M20.9615 20C20.9615 24.5066 17.5108 28.1731 13.2692 28.1731C9.02763 28.1731 5.5769 24.5066 5.5769 20C5.5769 15.4934 9.02763 11.8269 13.2692 11.8269C17.5108 11.8269 20.9615 15.4934 20.9615 20ZM26.7307 12.3077C26.0477 12.3077 24.7597 12.6395 23.8072 14.8619C23.2122 16.2501 22.8846 18.0749 22.8846 20C22.8846 21.9251 23.2122 23.7499 23.8072 25.1381C24.7597 27.3605 26.0477 27.6923 26.7307 27.6923C27.4138 27.6923 28.7018 27.3605 29.6543 25.1381C30.2493 23.7499 30.5769 21.9251 30.5769 20C30.5769 18.0749 30.2493 16.2501 29.6543 14.8619C28.7018 12.6395 27.4138 12.3077 26.7307 12.3077ZM33.4615 12.3077C33.2065 12.3077 32.9619 12.409 32.7816 12.5893C32.6013 12.7696 32.5 13.0142 32.5 13.2692V26.7308C32.5 26.9858 32.6013 27.2303 32.7816 27.4107C32.9619 27.591 33.2065 27.6923 33.4615 27.6923C33.7165 27.6923 33.9611 27.591 34.1414 27.4107C34.3218 27.2303 34.4231 26.9858 34.4231 26.7308V13.2692C34.423 13.0142 34.3217 12.7696 34.1414 12.5893C33.9611 12.409 33.7165 12.3077 33.4615 12.3077Z" fill="white"/>
<rect x="0.384615" y="0.384615" width="39.2308" height="39.2308" rx="7.30769" stroke="white" stroke-width="0.769231"/>
</svg>
