<svg width="41" height="40" viewBox="0 0 41 40" fill="none" xmlns="http://www.w3.org/2000/svg">
<path d="M20.7927 7.17969C18.257 7.17969 15.7783 7.9316 13.67 9.34033C11.5617 10.7491 9.91843 12.7514 8.94808 15.094C7.97772 17.4366 7.72383 20.0144 8.21852 22.5014C8.7132 24.9883 9.93423 27.2727 11.7272 29.0657C13.5202 30.8587 15.8046 32.0797 18.2915 32.5744C20.7785 33.0691 23.3562 32.8152 25.6989 31.8448C28.0415 30.8745 30.0438 29.2312 31.4526 27.1229C32.8613 25.0146 33.6132 22.5359 33.6132 20.0002C33.6133 18.3165 33.2818 16.6494 32.6376 15.0938C31.9933 13.5383 31.049 12.1249 29.8585 10.9344C28.6679 9.74389 27.2546 8.79955 25.6991 8.15531C24.1435 7.51106 22.4763 7.17955 20.7927 7.17969ZM24.869 26.6059C24.821 26.7256 24.748 26.8336 24.6548 26.9227C24.5617 27.0119 24.4506 27.08 24.3289 27.1227C24.2073 27.1654 24.0779 27.1816 23.9495 27.1702C23.8211 27.1588 23.6966 27.12 23.5844 27.0566L20.104 24.3522L17.8703 26.413C17.8184 26.4513 17.7578 26.476 17.694 26.4847C17.6301 26.4934 17.5651 26.4859 17.5049 26.4629L17.9331 22.6316L17.9468 22.6425L17.9556 22.5668C17.9556 22.5668 24.2184 16.8649 24.4735 16.6219C24.7318 16.3796 24.6466 16.3271 24.6466 16.3271C24.6613 16.0315 24.1831 16.3271 24.1831 16.3271L15.885 21.6656L12.4292 20.4887C12.4292 20.4887 11.8985 20.2983 11.8485 19.8797C11.7959 19.4643 12.4465 19.2387 12.4465 19.2387L26.1863 13.7803C26.1863 13.7803 27.3158 13.2771 27.3158 14.1105L24.869 26.6059Z" fill="white"/>
<rect x="1.18466" y="0.384615" width="39.2308" height="39.2308" rx="7.30769" stroke="white" stroke-width="0.769231"/>
</svg>
