<svg width="41" height="40" viewBox="0 0 41 40" fill="none" xmlns="http://www.w3.org/2000/svg">
<path d="M34.8834 11.1147C33.832 11.5817 32.7024 11.8959 31.5169 12.0377C32.7277 11.3125 33.656 10.1645 34.0932 8.79558C32.9615 9.46696 31.707 9.95465 30.3707 10.2183C29.3018 9.07896 27.779 8.36696 26.0935 8.36696C22.368 8.31712 19.5037 11.9568 20.3852 15.5623C15.5147 15.3183 11.1969 12.9848 8.3052 9.43804C6.72705 12.0116 7.62305 15.6919 10.1194 17.263C9.15905 17.2322 8.25474 16.9685 7.46489 16.53C7.42828 19.3931 9.45936 21.8103 12.1661 22.3497C11.3344 22.5817 10.3763 22.618 9.51936 22.4507C10.2655 24.7787 12.4298 26.474 14.9941 26.5211C12.6757 28.3737 9.42982 29.3396 6.31689 28.9482C18.8344 36.6519 32.6723 26.559 31.9578 14.1479C33.1034 13.3208 34.0978 12.2891 34.8834 11.1147Z" fill="white"/>
<rect x="0.984591" y="0.384615" width="39.2308" height="39.2308" rx="7.30769" stroke="white" stroke-width="0.769231"/>
</svg>
