<svg width="52" height="51" viewBox="0 0 52 51" fill="none" xmlns="http://www.w3.org/2000/svg">
<path d="M1.51264 13.3441C1.51264 12.4356 1.09943 11.6989 0.589722 11.6989V0C4.72404 0 8.07557 5.97436 8.07557 13.3441V37.6559C8.07557 38.5644 8.48877 39.3011 8.99848 39.3011C9.5082 39.3011 9.9214 38.5644 9.9214 37.6559V13.3441C9.9214 5.97436 13.2729 0 17.4073 0C21.5416 0 24.8931 5.97436 24.8931 13.3441V37.6559C24.8931 38.5644 25.3064 39.3011 25.816 39.3011C26.3256 39.3011 26.7389 38.5644 26.7389 37.6559V13.3441C26.7389 5.97436 30.0904 0 34.2247 0C38.3591 0 41.7106 5.97436 41.7106 13.3441V37.6559C41.7106 38.5644 42.1237 39.3011 42.6336 39.3011C43.1432 39.3011 43.5565 38.5644 43.5565 37.6559V13.3441C43.5565 5.97436 46.908 0 51.0423 0V11.6989C50.5326 11.6989 50.1193 12.4356 50.1193 13.3441V37.6559C50.1193 45.0256 46.7678 51 42.6336 51C38.4991 51 35.1476 45.0256 35.1476 37.6559V13.3441C35.1476 12.4356 34.7345 11.6989 34.2247 11.6989C33.715 11.6989 33.3018 12.4356 33.3018 13.3441V37.6559C33.3018 45.0256 29.9503 51 25.816 51C21.6817 51 18.3302 45.0256 18.3302 37.6559V13.3441C18.3302 12.4356 17.917 11.6989 17.4073 11.6989C16.8975 11.6989 16.4844 12.4356 16.4844 13.3441V37.6559C16.4844 45.0256 13.1328 51 8.99848 51C4.86415 51 1.51264 45.0256 1.51264 37.6559V13.3441Z" fill="white"/>
</svg>
